<?xml version="1.0" encoding="UTF-8"?>
<svg version="1.1" xmlns="http://www.w3.org/2000/svg" width="256" height="256">
<path d="M0 0 C84.48 0 168.96 0 256 0 C256 84.48 256 168.96 256 256 C171.52 256 87.04 256 0 256 C0 171.52 0 87.04 0 0 Z " fill="#FDFDFD" transform="translate(0,0)"/>
<path d="M0 0 C3.875 1.875 3.875 1.875 5 3 C7.32817964 3.36760731 9.6618385 3.70241581 12 4 C11 7 11 7 9.015625 8.30078125 C6.20522594 10.67001302 6.21282064 12.60064007 5.75 16.1875 C5.60046875 17.27417969 5.4509375 18.36085938 5.296875 19.48046875 C5.19890625 20.31191406 5.1009375 21.14335938 5 22 C8.37917138 20.31041431 8.86243792 16.39871597 10.0625 13 C12.88855422 5.11144578 12.88855422 5.11144578 14 4 C16.86267567 3.92674832 19.700719 3.90761795 22.5625 3.9375 C23.36880859 3.94201172 24.17511719 3.94652344 25.00585938 3.95117188 C27.00393756 3.96299482 29.00197783 3.98093086 31 4 C31 6.97 31 9.94 31 13 C27.04 13.33 23.08 13.66 19 14 C18.62488281 15.08796875 18.24976563 16.1759375 17.86328125 17.296875 C15.23071871 24.87751164 12.5168552 32.36887746 9.359375 39.75 C6.70221368 46.10275349 4.26528567 52.54498709 1.7902832 58.97045898 C0.87552422 61.31966857 -0.06371463 63.65928656 -1 66 C-18.16 66 -35.32 66 -53 66 C-52.67 64.35 -52.34 62.7 -52 61 C-47.68109097 60.70967913 -43.36184723 60.42514353 -39.04223633 60.14550781 C-37.5789207 60.05001497 -36.11569972 59.95305833 -34.65258789 59.85449219 C-25.42027941 59.23372633 -16.25977415 58.85548851 -7 59 C-6.01 56.03 -5.02 53.06 -4 50 C-20.5 50 -37 50 -54 50 C-54.66 45.111875 -55.32 40.22375 -56 35.1875 C-56.20882812 33.64860107 -56.41765625 32.10970215 -56.6328125 30.52416992 C-56.79523438 29.31349854 -56.95765625 28.10282715 -57.125 26.85546875 C-57.29257813 25.61434326 -57.46015625 24.37321777 -57.6328125 23.09448242 C-58 20 -58 20 -58 17 C-55.69 17 -53.38 17 -51 17 C-51 19.64 -51 22.28 -51 25 C-50.34 25 -49.68 25 -49 25 C-48.8453125 23.88625 -48.8453125 23.88625 -48.6875 22.75 C-47.92999822 19.71999286 -47.16133601 18.23852658 -45 16 C-42.5625 14.875 -42.5625 14.875 -40 14 C-38.65949948 13.34786461 -37.32338632 12.68620031 -36 12 C-36.4125 12.70125 -36.825 13.4025 -37.25 14.125 C-37.4975 15.07375 -37.745 16.0225 -38 17 C-36.23084477 20.11211359 -36.23084477 20.11211359 -34 23 C-32.38348736 27.81884464 -32.49083626 32.99195666 -33 38 C-34.375 40.6875 -34.375 40.6875 -37 42 C-40.36193647 42.3003611 -43.63562775 42.23114008 -47 42 C-47.33 42.66 -47.66 43.32 -48 44 C-35.79 44 -23.58 44 -11 44 C-11 42.68 -11 41.36 -11 40 C-14.31184707 39.22868094 -14.31184707 39.22868094 -18 39 C-18.61875 39.4846875 -19.2375 39.969375 -19.875 40.46875 C-22.64810253 42.46701506 -24.37431339 42.30806024 -27.75 42.1875 C-28.73484375 42.16042969 -29.7196875 42.13335937 -30.734375 42.10546875 C-31.48203125 42.07066406 -32.2296875 42.03585938 -33 42 C-32.83628906 41.30519531 -32.67257813 40.61039063 -32.50390625 39.89453125 C-31.95904004 36.7647184 -31.90261517 33.86201917 -31.9375 30.6875 C-31.94652344 29.61886719 -31.95554687 28.55023438 -31.96484375 27.44921875 C-31.97644531 26.64097656 -31.98804687 25.83273438 -32 25 C-31.34 25 -30.68 25 -30 25 C-30.495 24.46375 -30.99 23.9275 -31.5 23.375 C-33.37489544 20.40641555 -33.23501425 18.44687573 -33 15 C-31.1875 15.0625 -31.1875 15.0625 -29 16 C-27.25 19.5625 -27.25 19.5625 -26 23 C-24.34623289 21.34623289 -24.36528792 19.19051636 -23.9375 16.9375 C-23.76089844 16.01839844 -23.58429688 15.09929687 -23.40234375 14.15234375 C-23.26957031 13.44207031 -23.13679688 12.73179688 -23 12 C-24.65 12 -26.3 12 -28 12 C-28.33 11.34 -28.66 10.68 -29 10 C-27.783125 9.896875 -26.56625 9.79375 -25.3125 9.6875 C-21.58930552 9.23780688 -19.08337005 8.21617222 -16 6 C-16.66 7.98 -17.32 9.96 -18 12 C-15.69 13.98 -13.38 15.96 -11 18 C-10.34 17.01 -9.68 16.02 -9 15 C-7.68 15.66 -6.36 16.32 -5 17 C-0.65292985 11.30223306 0.74521523 7.15406617 0 0 Z " fill="#0C8F4C" transform="translate(152,82)"/>
<path d="M0 0 C3.875 1.875 3.875 1.875 5 3 C7.32817964 3.36760731 9.6618385 3.70241581 12 4 C11 7 11 7 9.015625 8.30078125 C6.20522594 10.67001302 6.21282064 12.60064007 5.75 16.1875 C5.60046875 17.27417969 5.4509375 18.36085938 5.296875 19.48046875 C5.19890625 20.31191406 5.1009375 21.14335938 5 22 C8.37917138 20.31041431 8.86243792 16.39871597 10.0625 13 C12.88855422 5.11144578 12.88855422 5.11144578 14 4 C16.86267567 3.92674832 19.700719 3.90761795 22.5625 3.9375 C23.36880859 3.94201172 24.17511719 3.94652344 25.00585938 3.95117188 C27.00393756 3.96299482 29.00197783 3.98093086 31 4 C31 6.97 31 9.94 31 13 C25.06 13.495 25.06 13.495 19 14 C18.62488281 15.08796875 18.24976563 16.1759375 17.86328125 17.296875 C15.23114205 24.87629263 12.5200978 32.3676532 9.359375 39.74609375 C7.27186229 44.74292733 5.34447317 49.80122956 3.41040039 54.85913086 C2.98488892 55.96526733 2.98488892 55.96526733 2.55078125 57.09375 C2.29981689 57.75052734 2.04885254 58.40730469 1.7902832 59.08398438 C0.95430184 61.11079368 0.00247791 63.05087291 -1 65 C-1.69762046 58.86093997 0.20537483 54.54008699 2.7109375 48.96484375 C4.0372929 46.0335004 4.0372929 46.0335004 4.98828125 43.03515625 C6.08130352 39.75608943 7.41332959 36.66013159 8.8125 33.5 C11.50425792 27.30499831 13.82887675 21.05560533 16.01953125 14.66796875 C17 12 17 12 18 11 C19.85287502 10.92773498 21.70833878 10.9161878 23.5625 10.9375 C24.57441406 10.94652344 25.58632812 10.95554687 26.62890625 10.96484375 C27.41136719 10.97644531 28.19382813 10.98804687 29 11 C29 9.68 29 8.36 29 7 C26.89516445 7.0330288 24.7908757 7.10244546 22.6875 7.1875 C21.51574219 7.22230469 20.34398437 7.25710937 19.13671875 7.29296875 C15.85706296 7.68625922 15.85706296 7.68625922 14.19140625 10.29296875 C13.79824219 11.18628906 13.40507812 12.07960938 13 13 C12.67515625 13.70382813 12.3503125 14.40765625 12.015625 15.1328125 C11.63664062 16.11894531 11.63664062 16.11894531 11.25 17.125 C10.98703125 17.78757812 10.7240625 18.45015625 10.453125 19.1328125 C9.77443946 21.20838295 9.77443946 21.20838295 11 24 C9.59554165 26.2636564 7.8032087 28.0208685 6 30 C5.34 29.34 4.68 28.68 4 28 C1.42111073 29.28944463 1.28564619 30.383141 0.1875 33 C-1.64411765 36.87058824 -1.64411765 36.87058824 -4.75 38 C-5.4925 38 -6.235 38 -7 38 C-7 38.66 -7 39.32 -7 40 C-6.34 40 -5.68 40 -5 40 C-5.33 40.99 -5.66 41.98 -6 43 C-4.35 43.33 -2.7 43.66 -1 44 C-1 44.33 -1 44.66 -1 45 C-6.9114744 45.77313045 -12.1314592 46.14819277 -18 45 C-18 44.67 -18 44.34 -18 44 C-15.69 44 -13.38 44 -11 44 C-11 42.68 -11 41.36 -11 40 C-14.31184707 39.22868094 -14.31184707 39.22868094 -18 39 C-18.928125 39.72703125 -18.928125 39.72703125 -19.875 40.46875 C-22.64810253 42.46701506 -24.37431339 42.30806024 -27.75 42.1875 C-28.73484375 42.16042969 -29.7196875 42.13335937 -30.734375 42.10546875 C-31.48203125 42.07066406 -32.2296875 42.03585938 -33 42 C-32.83628906 41.30519531 -32.67257813 40.61039063 -32.50390625 39.89453125 C-31.95904004 36.7647184 -31.90261517 33.86201917 -31.9375 30.6875 C-31.94652344 29.61886719 -31.95554687 28.55023438 -31.96484375 27.44921875 C-31.97644531 26.64097656 -31.98804687 25.83273438 -32 25 C-31.34 25 -30.68 25 -30 25 C-30.495 24.46375 -30.99 23.9275 -31.5 23.375 C-33.37489544 20.40641555 -33.23501425 18.44687573 -33 15 C-31.1875 15.0625 -31.1875 15.0625 -29 16 C-27.25 19.5625 -27.25 19.5625 -26 23 C-24.34623289 21.34623289 -24.36528792 19.19051636 -23.9375 16.9375 C-23.76089844 16.01839844 -23.58429688 15.09929687 -23.40234375 14.15234375 C-23.26957031 13.44207031 -23.13679687 12.73179688 -23 12 C-24.65 12 -26.3 12 -28 12 C-28.33 11.34 -28.66 10.68 -29 10 C-27.783125 9.896875 -26.56625 9.79375 -25.3125 9.6875 C-21.58930552 9.23780688 -19.08337005 8.21617222 -16 6 C-16.66 7.98 -17.32 9.96 -18 12 C-14.535 14.97 -14.535 14.97 -11 18 C-10.34 17.01 -9.68 16.02 -9 15 C-7.68 15.66 -6.36 16.32 -5 17 C-0.65292985 11.30223306 0.74521523 7.15406617 0 0 Z " fill="#0A815B" transform="translate(152,82)"/>
<path d="M0 0 C3.875 1.875 3.875 1.875 5 3 C7.32817964 3.36760731 9.6618385 3.70241581 12 4 C11 7 11 7 9.015625 8.30078125 C6.20522594 10.67001302 6.21282064 12.60064007 5.75 16.1875 C5.60046875 17.27417969 5.4509375 18.36085938 5.296875 19.48046875 C5.19890625 20.31191406 5.1009375 21.14335938 5 22 C4.34 22 3.68 22 3 22 C2.78244334 16.5610835 2.89571616 12.12919186 5 7 C5.66 7 6.32 7 7 7 C7 6.34 7 5.68 7 5 C5.68 5 4.36 5 3 5 C3.144375 5.825 3.28875 6.65 3.4375 7.5 C2.86733994 12.06128048 0.9515638 14.04981467 -1.98046875 17.4609375 C-4.48664637 19.37086783 -5.92246711 19.30828481 -9 19 C-9.33 19.99 -9.66 20.98 -10 22 C-10 21.34 -10 20.68 -10 20 C-10.99 20 -11.98 20 -13 20 C-13 19.34 -13 18.68 -13 18 C-13.94875 18.78375 -14.8975 19.5675 -15.875 20.375 C-16.40867188 20.81585938 -16.94234375 21.25671875 -17.4921875 21.7109375 C-18.71051161 22.75250992 -19.86660097 23.86660097 -21 25 C-21.33 24.01 -21.66 23.02 -22 22 C-22.66 22.33 -23.32 22.66 -24 23 C-24.125 15.375 -24.125 15.375 -23 12 C-24.65 12 -26.3 12 -28 12 C-28.33 11.34 -28.66 10.68 -29 10 C-27.783125 9.896875 -26.56625 9.79375 -25.3125 9.6875 C-21.58930552 9.23780688 -19.08337005 8.21617222 -16 6 C-16.66 7.98 -17.32 9.96 -18 12 C-15.69 13.98 -13.38 15.96 -11 18 C-10.34 17.01 -9.68 16.02 -9 15 C-7.68 15.66 -6.36 16.32 -5 17 C-0.65292985 11.30223306 0.74521523 7.15406617 0 0 Z " fill="#189B48" transform="translate(152,82)"/>
<path d="M0 0 C7.75 0.875 7.75 0.875 10 2 C10 2.66 10 3.32 10 4 C12.94729537 5.15811388 12.94729537 5.15811388 16 5 C16 8.3 16 11.6 16 15 C14.88625 14.79375 13.7725 14.5875 12.625 14.375 C11.42875 14.25125 10.2325 14.1275 9 14 C8.34 14.66 7.68 15.32 7 16 C4.3984375 16.1953125 4.3984375 16.1953125 1.375 16.125 C-0.12933594 16.09792969 -0.12933594 16.09792969 -1.6640625 16.0703125 C-2.43492188 16.04710938 -3.20578125 16.02390625 -4 16 C-3.34 15.01 -2.68 14.02 -2 13 C-1.9744911 10.4745777 -1.9744911 10.4745777 -2.375 7.8125 C-2.48585938 6.91144531 -2.59671875 6.01039062 -2.7109375 5.08203125 C-2.80632812 4.39496094 -2.90171875 3.70789063 -3 3 C-2.01 2.67 -1.02 2.34 0 2 C0 1.34 0 0.68 0 0 Z " fill="#056173" transform="translate(125,107)"/>
<path d="M0 0 C2.475 0.495 2.475 0.495 5 1 C5.33 0.67 5.66 0.34 6 0 C7.66608987 -0.04384447 9.33380554 -0.0396713 11 0 C12.85463477 0 14.71006788 -0.03463746 16.5625 -0.125 C19 0 19 0 21 2 C21.1953125 4.6015625 21.1953125 4.6015625 21.125 7.625 C21.10695312 8.62789062 21.08890625 9.63078125 21.0703125 10.6640625 C21.04710937 11.43492187 21.02390625 12.20578125 21 13 C19.35 13 17.7 13 16 13 C16 10.03 16 7.06 16 4 C15.01 4 14.02 4 13 4 C13 6.97 13 9.94 13 13 C11.35 13 9.7 13 8 13 C8 10.03 8 7.06 8 4 C7.01 4 6.02 4 5 4 C5 6.97 5 9.94 5 13 C3.35 13 1.7 13 0 13 C0 8.71 0 4.42 0 0 Z " fill="#242424" transform="translate(207,119)"/>
<path d="M0 0 C5.61 0 11.22 0 17 0 C17 2.97 17 5.94 17 9 C11.06 9.495 11.06 9.495 5 10 C4.62488281 11.08796875 4.24976563 12.1759375 3.86328125 13.296875 C1.23114205 20.87629263 -1.4799022 28.3676532 -4.640625 35.74609375 C-6.72813771 40.74292733 -8.65552683 45.80122956 -10.58959961 50.85913086 C-10.87327393 51.59655518 -11.15694824 52.33397949 -11.44921875 53.09375 C-11.82566528 54.07891602 -11.82566528 54.07891602 -12.2097168 55.08398438 C-13.04569816 57.11079368 -13.99752209 59.05087291 -15 61 C-15.69762046 54.86093997 -13.79462517 50.54008699 -11.2890625 44.96484375 C-9.9627071 42.0335004 -9.9627071 42.0335004 -9.01171875 39.03515625 C-7.91869648 35.75608943 -6.58667041 32.66013159 -5.1875 29.5 C-2.49574208 23.30499831 -0.17112325 17.05560533 2.01953125 10.66796875 C3 8 3 8 4 7 C5.85287502 6.92773498 7.70833878 6.9161878 9.5625 6.9375 C10.57441406 6.94652344 11.58632812 6.95554687 12.62890625 6.96484375 C13.80259766 6.98224609 13.80259766 6.98224609 15 7 C15 5.68 15 4.36 15 3 C12.89516445 3.0330288 10.7908757 3.10244546 8.6875 3.1875 C7.51574219 3.22230469 6.34398437 3.25710937 5.13671875 3.29296875 C1.85287956 3.68589254 1.85287956 3.68589254 0.1875 6.3125 C-0.204375 7.199375 -0.59625 8.08625 -1 9 C-1.31324219 9.66644531 -1.62648437 10.33289063 -1.94921875 11.01953125 C-2.19285156 11.61121094 -2.43648437 12.20289062 -2.6875 12.8125 C-3.120625 13.864375 -3.55375 14.91625 -4 16 C-4.66 16 -5.32 16 -6 16 C-5.56983068 14.45627181 -5.13045174 12.91510913 -4.6875 11.375 C-4.44386719 10.51648438 -4.20023438 9.65796875 -3.94921875 8.7734375 C-3 6 -3 6 0 0 Z " fill="#3E7589" transform="translate(166,86)"/>
<path d="M0 0 C2.4375 1.625 2.4375 1.625 4 4 C4.47842171 7.28060601 4.27652573 9.29946814 3.0625 12.375 C0.15713977 14.6640717 -2.23277324 14.43961204 -5.84375 14.43359375 C-8.49925851 13.89960563 -9.40183163 13.1642907 -11 11 C-11.49573337 7.10495209 -11.58016848 4.90506283 -9.4375 1.5625 C-6.05782196 -0.60396028 -3.94016013 -0.56288002 0 0 Z " fill="#111110" transform="translate(83,116)"/>
<path d="M0 0 C10.56 0 21.12 0 32 0 C32 0.99 32 1.98 32 3 C38.27 3.33 44.54 3.66 51 4 C51 4.33 51 4.66 51 5 C33.84 5 16.68 5 -1 5 C-0.67 3.35 -0.34 1.7 0 0 Z " fill="#129F3F" transform="translate(100,143)"/>
<path d="M0 0 C4.62 0 9.24 0 14 0 C14 1.32 14 2.64 14 4 C11.36 4 8.72 4 6 4 C6 4.99 6 5.98 6 7 C8.31 7 10.62 7 13 7 C13 8.32 13 9.64 13 11 C10.69 11 8.38 11 6 11 C6 12.98 6 14.96 6 17 C4.02 17 2.04 17 0 17 C0 11.39 0 5.78 0 0 Z " fill="#0E0E0E" transform="translate(12,113)"/>
<path d="M0 0 C4.29 0 8.58 0 13 0 C13 1.65 13 3.3 13 5 C10.69 5 8.38 5 6 5 C6 5.66 6 6.32 6 7 C7.98 7 9.96 7 12 7 C12 8.32 12 9.64 12 11 C10.02 11 8.04 11 6 11 C6 12.98 6 14.96 6 17 C4.02 17 2.04 17 0 17 C0 11.39 0 5.78 0 0 Z " fill="#292929" transform="translate(166,115)"/>
<path d="M0 0 C2.4375 2.125 2.4375 2.125 4 5 C4 8.54334961 3.64741834 10.25666783 1.3125 12.9375 C-1.89943934 14.41325591 -3.66474802 14.06444212 -7 13 C-8.9375 11.3125 -8.9375 11.3125 -10 9 C-9.87177883 5.85858144 -9.4995896 3.78882568 -7.8125 1.125 C-5.02330727 -0.60622307 -3.20853478 -0.52384241 0 0 Z " fill="#14746B" transform="translate(155,149)"/>
<path d="M0 0 C1.258125 -0.04125 2.51625 -0.0825 3.8125 -0.125 C4.52019531 -0.14820312 5.22789062 -0.17140625 5.95703125 -0.1953125 C8 0 8 0 11 2 C11.71975366 5.65920563 11.78291925 9.2662111 12 13 C7.71 13 3.42 13 -1 13 C-1.33 11.02 -1.66 9.04 -2 7 C1.22791555 4.8480563 2.28400809 4.79913557 6 5 C6 4.34 6 3.68 6 3 C3.36 3.33 0.72 3.66 -2 4 C-1.34 2.68 -0.68 1.36 0 0 Z " fill="#151515" transform="translate(183,119)"/>
<path d="M0 0 C2.5625 0.1875 2.5625 0.1875 4.5625 2.1875 C4.7578125 5.0078125 4.7578125 5.0078125 4.6875 8.3125 C4.66945313 9.40820312 4.65140625 10.50390625 4.6328125 11.6328125 C4.60960938 12.47585937 4.58640625 13.31890625 4.5625 14.1875 C2.9125 14.1875 1.2625 14.1875 -0.4375 14.1875 C-0.4375 10.8875 -0.4375 7.5875 -0.4375 4.1875 C-1.4275 4.5175 -2.4175 4.8475 -3.4375 5.1875 C-3.7675 8.1575 -4.0975 11.1275 -4.4375 14.1875 C-6.0875 14.1875 -7.7375 14.1875 -9.4375 14.1875 C-9.4375 9.8975 -9.4375 5.6075 -9.4375 1.1875 C-7.4575 1.1875 -5.4775 1.1875 -3.4375 1.1875 C-2.4375 0.1875 -2.4375 0.1875 0 0 Z " fill="#0D0D0D" transform="translate(64.4375,115.8125)"/>
<path d="M0 0 C0.66 0 1.32 0 2 0 C2 0.66 2 1.32 2 2 C1.01 2.495 1.01 2.495 0 3 C-0.83585019 5.03054705 -1.46630271 7.09216868 -2.12109375 9.1875 C-2.41113281 9.785625 -2.70117188 10.38375 -3 11 C-3.99 11.33 -4.98 11.66 -6 12 C-6.66 11.01 -7.32 10.02 -8 9 C-8.33 9.33 -8.66 9.66 -9 10 C-8.93390016 11.62845964 -8.79489823 13.25407909 -8.625 14.875 C-8.04266726 20.58186089 -7.51962044 26.2841752 -7 32 C0.59 32.33 8.18 32.66 16 33 C16 33.33 16 33.66 16 34 C7.75 34 -0.5 34 -9 34 C-9.57149082 29.78270391 -10.14177861 25.56528154 -10.70898438 21.34741211 C-10.90228404 19.91274586 -11.09628926 18.47817448 -11.29101562 17.04370117 C-11.57087 14.98120296 -11.84818101 12.91837627 -12.125 10.85546875 C-12.29257813 9.61434326 -12.46015625 8.37321777 -12.6328125 7.09448242 C-13 4 -13 4 -13 1 C-10.69 1 -8.38 1 -6 1 C-6 3.64 -6 6.28 -6 9 C-5.34 9 -4.68 9 -4 9 C-3.896875 8.2575 -3.79375 7.515 -3.6875 6.75 C-2.95066203 3.8026481 -2.05200858 2.21616926 0 0 Z " fill="#30BB38" transform="translate(107,98)"/>
<path d="M0 0 C2 2 2 2 2.1953125 4.6015625 C2.17210937 5.59929687 2.14890625 6.59703125 2.125 7.625 C2.10695313 8.62789062 2.08890625 9.63078125 2.0703125 10.6640625 C2.03550781 11.82035156 2.03550781 11.82035156 2 13 C0.35 13 -1.3 13 -3 13 C-3.33 10.03 -3.66 7.06 -4 4 C-4.66 4 -5.32 4 -6 4 C-6.33 6.97 -6.66 9.94 -7 13 C-8.65 13 -10.3 13 -12 13 C-12 8.71 -12 4.42 -12 0 C-7.72282611 -0.75479539 -4.19188572 -1.3174498 0 0 Z " fill="#111111" transform="translate(50,117)"/>
<path d="M0 0 C0.66 0 1.32 0 2 0 C3.99154697 5.9746409 3.47680834 11.37089013 1 17 C2.75091019 16.91245449 4.50079551 16.80426627 6.25 16.6875 C7.22453125 16.62949219 8.1990625 16.57148437 9.203125 16.51171875 C12.05637264 16.20465446 12.05637264 16.20465446 14.125 14.40625 C14.74375 13.9421875 15.3625 13.478125 16 13 C19.75 13.8125 19.75 13.8125 23 15 C23 16.32 23 17.64 23 19 C10.79 19 -1.42 19 -14 19 C-13.505 17.515 -13.505 17.515 -13 16 C-11.96939453 16.05220703 -11.96939453 16.05220703 -10.91796875 16.10546875 C-9.56638672 16.14607422 -9.56638672 16.14607422 -8.1875 16.1875 C-7.29417969 16.22230469 -6.40085937 16.25710937 -5.48046875 16.29296875 C-3.00602986 16.17369545 -3.00602986 16.17369545 -1.1875 14.90625 C0.59483911 12.0451267 0.28638532 9.64163896 0.1875 6.3125 C0.16042969 5.13300781 0.13335937 3.95351562 0.10546875 2.73828125 C0.07066406 1.83464844 0.03585938 0.93101563 0 0 Z " fill="#AEEACE" transform="translate(118,107)"/>
<path d="M0 0 C2 2 2 2 2.265625 4.20703125 C2.21379833 12.84912813 2.21379833 12.84912813 0 17 C-3.3 17 -6.6 17 -10 17 C-10.33 17.66 -10.66 18.32 -11 19 C-5.72 19 -0.44 19 5 19 C0.73719571 21.84186952 -3.00089601 21.39067958 -8 21 C-11.0625 20.1875 -11.0625 20.1875 -13 19 C-13.33 18.01 -13.66 17.02 -14 16 C-13.67 15.34 -13.34 14.68 -13 14 C-10.69 14 -8.38 14 -6 14 C-6 12.35 -6 10.7 -6 9 C-5.01 8.67 -4.02 8.34 -3 8 C-2.25740651 5.68970915 -1.588562 3.354248 -1 1 C-0.67 0.67 -0.34 0.34 0 0 Z " fill="#0B9848" transform="translate(115,107)"/>
<path d="M0 0 C0.99 0.66 1.98 1.32 3 2 C3.4375 5.4375 3.4375 5.4375 3 9 C1.3125 11 1.3125 11 -1 12 C-3.85343764 11.86080792 -5.46462886 11.36922147 -7.8125 9.75 C-9.45364719 7.3314673 -9.42967368 5.86449123 -9 3 C-6.72678821 -0.66239677 -4.03980218 -0.42081273 0 0 Z " fill="#2AC035" transform="translate(106,151)"/>
<path d="M0 0 C3.625 0.1875 3.625 0.1875 6.625 2.1875 C6.625 2.8475 6.625 3.5075 6.625 4.1875 C4.975 4.1875 3.325 4.1875 1.625 4.1875 C4.1 5.1775 4.1 5.1775 6.625 6.1875 C6.8125 8.5625 6.8125 8.5625 6.625 11.1875 C3.15501271 13.50082486 1.69990752 13.52707563 -2.375 13.1875 C-3.365 12.5275 -4.355 11.8675 -5.375 11.1875 C-5.375 10.5275 -5.375 9.8675 -5.375 9.1875 C-3.065 9.1875 -0.755 9.1875 1.625 9.1875 C-0.685 8.1975 -2.995 7.2075 -5.375 6.1875 C-4.3073741 0.23929856 -4.3073741 0.23929856 0 0 Z " fill="#131313" transform="translate(235.375,118.8125)"/>
<path d="M0 0 C16.5 0 33 0 50 0 C49.34 2.31 48.68 4.62 48 7 C47.67 7 47.34 7 47 7 C47 5.35 47 3.7 47 2 C31.49 2 15.98 2 0 2 C0 1.34 0 0.68 0 0 Z " fill="#C9EDD7" transform="translate(98,132)"/>
<path d="M0 0 C1.875 0.3125 1.875 0.3125 4 1 C6.67927341 5.01891012 6.15601248 7.24161923 6 12 C5.01 12.495 5.01 12.495 4 13 C4.09539062 13.69867188 4.19078125 14.39734375 4.2890625 15.1171875 C4.39992188 16.02726562 4.51078125 16.93734375 4.625 17.875 C4.74101563 18.77992187 4.85703125 19.68484375 4.9765625 20.6171875 C4.98429687 21.40351562 4.99203125 22.18984375 5 23 C4.34 23.66 3.68 24.32 3 25 C5.64 25.33 8.28 25.66 11 26 C11 26.33 11 26.66 11 27 C7.37 27 3.74 27 0 27 C0.33 25.35 0.66 23.7 1 22 C1.0659735 19.89676466 1.08562245 17.79164276 1.0625 15.6875 C1.05347656 14.61886719 1.04445313 13.55023438 1.03515625 12.44921875 C1.02355469 11.64097656 1.01195313 10.83273438 1 10 C1.66 10 2.32 10 3 10 C2.505 9.46375 2.01 8.9275 1.5 8.375 C-0.37489544 5.40641555 -0.23501425 3.44687573 0 0 Z " fill="#1E7467" transform="translate(119,97)"/>
<path d="M0 0 C0.45028522 6.30399313 -0.38797371 10.71378634 -4 16 C-6.70879335 17.35439668 -9.00933268 17.06501451 -12 17 C-11.34 15.68 -10.68 14.36 -10 13 C-10.66 13 -11.32 13 -12 13 C-12 12.34 -12 11.68 -12 11 C-11.2575 10.835 -10.515 10.67 -9.75 10.5 C-6.17533826 8.5501845 -5.44722538 6.43113036 -3.89453125 2.77734375 C-2.95334331 0.90729784 -2.23546265 0 0 0 Z " fill="#267775" transform="translate(157,109)"/>
<path d="M0 0 C2.5 0.25 2.5 0.25 4.5 2.25 C4.29999908 7.55002445 3.11886262 10.39766237 -0.5 14.25 C-3.38994071 11.26974864 -4.44805086 9.76083317 -4.875 5.5625 C-4.43294383 1.65767048 -4.02341966 0.40234197 0 0 Z " fill="#226F65" transform="translate(83.5,164.75)"/>
<path d="M0 0 C0.33 0 0.66 0 1 0 C1 1.65 1 3.3 1 5 C2.32 5.33 3.64 5.66 5 6 C4.67 6.66 4.34 7.32 4 8 C3.505 7.505 3.505 7.505 3 7 C-1.14276875 6.75266863 -1.14276875 6.75266863 -5 8 C-5 7.34 -5 6.68 -5 6 C-18.2 6.33 -31.4 6.66 -45 7 C-44.67 7.66 -44.34 8.32 -44 9 C-46.97 9 -49.94 9 -53 9 C-53.33 6.69 -53.66 4.38 -54 2 C-53.67 2.99 -53.34 3.98 -53 5 C-35.84 4.67 -18.68 4.34 -1 4 C-0.67 2.68 -0.34 1.36 0 0 Z " fill="#E4FCF6" transform="translate(152,143)"/>
<path d="M0 0 C3.875 1.875 3.875 1.875 5 3 C7.32817964 3.36760731 9.6618385 3.70241581 12 4 C11 7 11 7 9.015625 8.30078125 C6.20522594 10.67001302 6.21282064 12.60064007 5.75 16.1875 C5.52570313 17.81751953 5.52570313 17.81751953 5.296875 19.48046875 C5.19890625 20.31191406 5.1009375 21.14335938 5 22 C4.34 22 3.68 22 3 22 C2.78244334 16.5610835 2.89571616 12.12919186 5 7 C5.66 7 6.32 7 7 7 C7 6.34 7 5.68 7 5 C5.68 5 4.36 5 3 5 C3.0825 5.9075 3.165 6.815 3.25 7.75 C3 11 3 11 1 13.375 C0.34 13.91125 -0.32 14.4475 -1 15 C-0.9278125 14.25234375 -0.855625 13.5046875 -0.78125 12.734375 C-0.64203125 11.25710937 -0.64203125 11.25710937 -0.5 9.75 C-0.36078125 8.28820312 -0.36078125 8.28820312 -0.21875 6.796875 C-0.04199832 4.53697847 0 2.26679807 0 0 Z " fill="#2EB43E" transform="translate(152,82)"/>
<path d="M0 0 C4.29 0 8.58 0 13 0 C13 0.66 13 1.32 13 2 C9.04 2 5.08 2 1 2 C1 2.66 1 3.32 1 4 C17.5 4 34 4 51 4 C51 4.33 51 4.66 51 5 C33.84 5 16.68 5 -1 5 C-0.67 3.35 -0.34 1.7 0 0 Z " fill="#42AD5A" transform="translate(100,143)"/>
<path d="M0 0 C5.61 0 11.22 0 17 0 C17 2.31 17 4.62 17 7 C13.04 7 9.08 7 5 7 C5 6.67 5 6.34 5 6 C8.63 6 12.26 6 16 6 C16 4.68 16 3.36 16 2 C13.89516445 2.0330288 11.7908757 2.10244546 9.6875 2.1875 C8.51574219 2.22230469 7.34398437 2.25710937 6.13671875 2.29296875 C2.85287956 2.68589254 2.85287956 2.68589254 1.1875 5.3125 C0.795625 6.199375 0.40375 7.08625 0 8 C-0.31324219 8.66644531 -0.62648437 9.33289063 -0.94921875 10.01953125 C-1.19285156 10.61121094 -1.43648437 11.20289062 -1.6875 11.8125 C-2.120625 12.864375 -2.55375 13.91625 -3 15 C-3.66 15 -4.32 15 -5 15 C-4.54464901 13.43662827 -4.08557224 11.87434151 -3.625 10.3125 C-3.36976563 9.44238281 -3.11453125 8.57226562 -2.8515625 7.67578125 C-2.02382686 5.07486881 -1.01369191 2.53422977 0 0 Z " fill="#0E4678" transform="translate(165,87)"/>
<path d="M0 0 C2.475 0.495 2.475 0.495 5 1 C5.33 0.67 5.66 0.34 6 0 C7.66617115 -0.04063832 9.33388095 -0.042721 11 0 C9.02 0.99 9.02 0.99 7 2 C7.33 2.66 7.66 3.32 8 4 C7.01 4 6.02 4 5 4 C5 6.97 5 9.94 5 13 C3.35 13 1.7 13 0 13 C0 8.71 0 4.42 0 0 Z " fill="#272727" transform="translate(207,119)"/>
<path d="M0 0 C2.31 0 4.62 0 7 0 C7.33 0.99 7.66 1.98 8 3 C7.01 3.495 7.01 3.495 6 4 C5.53348793 6.12576782 5.53348793 6.12576782 5.375 8.5625 C5.30023438 9.38878906 5.22546875 10.21507813 5.1484375 11.06640625 C5.09945312 11.70449219 5.05046875 12.34257812 5 13 C3.35 13 1.7 13 0 13 C0 8.71 0 4.42 0 0 Z " fill="#0A0A0A" transform="translate(38,117)"/>
<path d="M0 0 C2.97 0 5.94 0 9 0 C9 1.32 9 2.64 9 4 C8.360625 4.20625 7.72125 4.4125 7.0625 4.625 C4.65074923 5.89538209 4.65074923 5.89538209 4.25 9.125 C4.1675 10.07375 4.085 11.0225 4 12 C2.68 12 1.36 12 0 12 C0 8.04 0 4.08 0 0 Z " fill="#141414" transform="translate(197,119)"/>
<path d="M0 0 C1.65 0 3.3 0 5 0 C5 4.29 5 8.58 5 13 C3.35 13 1.7 13 0 13 C0 8.71 0 4.42 0 0 Z " fill="#0B0B0B" transform="translate(29,117)"/>
<path d="M0 0 C0.66 0.33 1.32 0.66 2 1 C1.07633369 3.65143047 0.13705596 6.29535493 -0.8125 8.9375 C-1.07353516 9.69224609 -1.33457031 10.44699219 -1.60351562 11.22460938 C-2.31510087 13.18366505 -3.15061557 15.09663488 -4 17 C-4.99 17.33 -5.98 17.66 -7 18 C-7.56164384 8.45205479 -7.56164384 8.45205479 -4 4 C-2.70420353 2.63015802 -1.38007251 1.2848951 0 0 Z " fill="#F2FCFB" transform="translate(164,86)"/>
<path d="M0 0 C0.33 0 0.66 0 1 0 C0.23788007 7.92604731 0.23788007 7.92604731 -3 11 C-6.09448242 11.45410156 -6.09448242 11.45410156 -9.85546875 11.390625 C-10.51710526 11.38496521 -11.17874176 11.37930542 -11.86042786 11.37347412 C-13.97019332 11.35111247 -16.07824952 11.30092371 -18.1875 11.25 C-19.61911606 11.2299344 -21.0507588 11.21168372 -22.48242188 11.1953125 C-25.98883515 11.15125069 -29.49425072 11.08222777 -33 11 C-33 10.67 -33 10.34 -33 10 C-22.9811352 9.32807613 -13.04584053 8.84276076 -3 9 C-2.01 6.03 -1.02 3.06 0 0 Z " fill="#2E8C63" transform="translate(148,132)"/>
<path d="M0 0 C1.2065625 0.0309375 1.2065625 0.0309375 2.4375 0.0625 C3.69987731 2.58725462 3.53606404 4.37450466 3.5 7.1875 C3.49097656 8.09757813 3.48195312 9.00765625 3.47265625 9.9453125 C3.46105469 10.64398438 3.44945312 11.34265625 3.4375 12.0625 C1.7875 12.0625 0.1375 12.0625 -1.5625 12.0625 C-1.5625 8.7625 -1.5625 5.4625 -1.5625 2.0625 C-2.2225 1.7325 -2.8825 1.4025 -3.5625 1.0625 C-2.5625 0.0625 -2.5625 0.0625 0 0 Z " fill="#1B1B1B" transform="translate(216.5625,119.9375)"/>
<path d="M0 0 C0.33 0.66 0.66 1.32 1 2 C1.78375 1.95875 2.5675 1.9175 3.375 1.875 C6 2 6 2 8 4 C8.125 7.125 8.125 7.125 8 10 C5.03 9.67 2.06 9.34 -1 9 C-1.09765625 2.84765625 -1.09765625 2.84765625 -1 1 C-0.67 0.67 -0.34 0.34 0 0 Z " fill="#0E5580" transform="translate(133,112)"/>
<path d="M0 0 C0.33 0.66 0.66 1.32 1 2 C3.02463255 2.65213292 3.02463255 2.65213292 5 3 C4.34 3 3.68 3 3 3 C3.94933899 6.35433109 4.89748835 9.69246505 6 13 C4.68 13 3.36 13 2 13 C0.4453125 11.390625 0.4453125 11.390625 -0.875 9.25 C-1.32617188 8.55390625 -1.77734375 7.8578125 -2.2421875 7.140625 C-3 5 -3 5 -2.1953125 2.796875 C-1 1 -1 1 0 0 Z " fill="#E3FBF0" transform="translate(116,94)"/>
<path d="M0 0 C2.69082872 0.17635452 5.32851446 0.61835921 8 1 C7.34 2.98 6.68 4.96 6 7 C4.02 7 2.04 7 0 7 C-0.38133299 5.0085944 -0.71325582 3.00720923 -1 1 C-0.67 0.67 -0.34 0.34 0 0 Z " fill="#3E3E3D" transform="translate(182,125)"/>
<path d="M0 0 C2 0 4 0 6 0 C6.66 0.66 7.32 1.32 8 2 C10.10820797 1.6814823 10.10820797 1.6814823 12 1 C12 2.65 12 4.3 12 6 C9.69 6 7.38 6 5 6 C4.67 5.34 4.34 4.68 4 4 C3.34 4 2.68 4 2 4 C1.34 4.66 0.68 5.32 0 6 C0 4.02 0 2.04 0 0 Z " fill="#444443" transform="translate(132,169)"/>
<path d="M0 0 C0.99 0.33 1.98 0.66 3 1 C2.34 1 1.68 1 1 1 C1 1.66 1 2.32 1 3 C1.66 3 2.32 3 3 3 C2.67 3.99 2.34 4.98 2 6 C3.65 6.33 5.3 6.66 7 7 C7 7.33 7 7.66 7 8 C1.0885256 8.77313045 -4.1314592 9.14819277 -10 8 C-10 7.67 -10 7.34 -10 7 C-7.69 7 -5.38 7 -3 7 C-2.67 5.68 -2.34 4.36 -2 3 C-1.34 3.33 -0.68 3.66 0 4 C0 2.68 0 1.36 0 0 Z " fill="#167362" transform="translate(144,119)"/>
<path d="M0 0 C1.875 0.3125 1.875 0.3125 4 1 C6.29013653 4.4352048 6.17842973 5.985331 6 10 C3 10 3 10 1.3125 8.375 C-0.32162419 5.41801336 -0.22692276 3.32820054 0 0 Z " fill="#348372" transform="translate(119,97)"/>
<path d="M0 0 C1.875 2 1.875 2 3 4 C1.906875 3.773125 0.81375 3.54625 -0.3125 3.3125 C-3.82616349 2.67232993 -3.82616349 2.67232993 -5.9375 4.0625 C-7.41793945 6.76212488 -7.20161999 8.97570019 -7 12 C-8.5625 10.875 -8.5625 10.875 -10 9 C-9.8701011 5.88242634 -9.48916419 3.77236451 -7.8125 1.125 C-5.06936366 -0.57763635 -3.15231132 -0.45971207 0 0 Z " fill="#358174" transform="translate(155,149)"/>
<path d="M0 0 C0.33 0.99 0.66 1.98 1 3 C7.27 3 13.54 3 20 3 C20 3.33 20 3.66 20 4 C16.37 4.33 12.74 4.66 9 5 C9.33 5.66 9.66 6.32 10 7 C7.03 7 4.06 7 1 7 C0.67 4.69 0.34 2.38 0 0 Z " fill="#C5F7C9" transform="translate(98,145)"/>
<path d="M0 0 C1.23593891 3.70781672 0.5678132 4.67510253 -0.9375 8.1875 C-1.31777344 9.08855469 -1.69804687 9.98960938 -2.08984375 10.91796875 C-2.39019531 11.60503906 -2.69054687 12.29210937 -3 13 C-4.98 13 -6.96 13 -9 13 C-8.34 11.68 -7.68 10.36 -7 9 C-7.66 9 -8.32 9 -9 9 C-9 8.34 -9 7.68 -9 7 C-7.35 7 -5.7 7 -4 7 C-2.68 4.69 -1.36 2.38 0 0 Z " fill="#A5D2D8" transform="translate(154,113)"/>
<path d="M0 0 C1.65 0 3.3 0 5 0 C5 0.99 5 1.98 5 3 C4.34 3 3.68 3 3 3 C2.67 3.66 2.34 4.32 2 5 C7.28 5 12.56 5 18 5 C13.73719571 7.84186952 9.99910399 7.39067958 5 7 C1.9375 6.1875 1.9375 6.1875 0 5 C-0.33 4.01 -0.66 3.02 -1 2 C-0.67 1.34 -0.34 0.68 0 0 Z " fill="#28B639" transform="translate(102,121)"/>
<path d="M0 0 C0.66 0.33 1.32 0.66 2 1 C1.34 1.66 0.68 2.32 0 3 C-0.38594492 5.1374401 -0.38594492 5.1374401 -0.5 7.5 C-0.77777778 11.77777778 -0.77777778 11.77777778 -3 14 C-3.66 14 -4.32 14 -5 14 C-4.67 12.68 -4.34 11.36 -4 10 C-3.34 10 -2.68 10 -2 10 C-2.33 8.68 -2.66 7.36 -3 6 C-5.475 7.485 -5.475 7.485 -8 9 C-7.67 8.01 -7.34 7.02 -7 6 C-6.34 6 -5.68 6 -5 6 C-5 5.34 -5 4.68 -5 4 C-3.37373596 2.61767557 -1.7074998 1.28062485 0 0 Z " fill="#21A646" transform="translate(114,94)"/>
<path d="M0 0 C0.33 0 0.66 0 1 0 C1.33965474 2.18652739 1.67142477 4.37428025 2 6.5625 C2.185625 7.78066406 2.37125 8.99882813 2.5625 10.25390625 C2.98555077 13.87627848 3.07501425 17.35712046 3 21 C2.34 21 1.68 21 1 21 C0.21311555 18.22276075 -0.11949924 15.77389923 -0.09765625 12.890625 C-0.09443359 12.13652344 -0.09121094 11.38242188 -0.08789062 10.60546875 C-0.07951172 9.82816406 -0.07113281 9.05085938 -0.0625 8.25 C-0.05798828 7.45722656 -0.05347656 6.66445312 -0.04882812 5.84765625 C-0.03708565 3.89840492 -0.01915146 1.94919262 0 0 Z " fill="#BCF2BC" transform="translate(95,111)"/>
<path d="M0 0 C0.33 0.66 0.66 1.32 1 2 C-4.61 2 -10.22 2 -16 2 C-16 1.34 -16 0.68 -16 0 C-14.08416353 -0.1958009 -12.16727461 -0.38132214 -10.25 -0.5625 C-8.64898437 -0.71912109 -8.64898437 -0.71912109 -7.015625 -0.87890625 C-4.34340208 -0.98621054 -2.47599264 -0.96609993 0 0 Z " fill="#14B82A" transform="translate(117,145)"/>
<path d="M0 0 C2.31 0.66 4.62 1.32 7 2 C7 2.99 7 3.98 7 5 C3.7 5 0.4 5 -3 5 C-2.01 3.35 -1.02 1.7 0 0 Z " fill="#E3F2F7" transform="translate(134,120)"/>
<path d="M0 0 C1.65 0 3.3 0 5 0 C5.66 1.32 6.32 2.64 7 4 C5.75 5.5625 5.75 5.5625 4 7 C1.8125 6.6875 1.8125 6.6875 0 6 C0.185625 5.38125 0.37125 4.7625 0.5625 4.125 C1.23686176 1.95839822 1.23686176 1.95839822 0 0 Z " fill="#8ABBB0" transform="translate(81,165)"/>
<path d="M0 0 C1.95218444 3.27688103 2.27063566 5.77069727 2.25 9.5625 C2.25515625 10.51253906 2.2603125 11.46257812 2.265625 12.44140625 C2 15 2 15 0 18 C-0.66 18 -1.32 18 -2 18 C-1.84660156 17.48953125 -1.69320312 16.9790625 -1.53515625 16.453125 C-0.83094597 13.2250662 -0.65111796 10.04581999 -0.4375 6.75 C-0.35371094 5.48671875 -0.26992187 4.2234375 -0.18359375 2.921875 C-0.12300781 1.95765625 -0.06242187 0.9934375 0 0 Z " fill="#278C5C" transform="translate(117,105)"/>
<path d="M0 0 C2.475 0.495 2.475 0.495 5 1 C5 2.65 5 4.3 5 6 C3.0625 6.5625 3.0625 6.5625 1 7 C0 6 0 6 -0.0625 2.9375 C-0.041875 1.968125 -0.02125 0.99875 0 0 Z " fill="#ECECEC" transform="translate(77,120)"/>
<path d="M0 0 C0.33 0.66 0.66 1.32 1 2 C-1.31578947 6.31578947 -1.31578947 6.31578947 -3 8 C-4.66617115 8.04063832 -6.33388095 8.042721 -8 8 C-8.33 8.99 -8.66 9.98 -9 11 C-10 8 -10 8 -9.0625 5.8125 C-8.711875 5.214375 -8.36125 4.61625 -8 4 C-6.68 4.66 -5.36 5.32 -4 6 C-2.68 4.02 -1.36 2.04 0 0 Z " fill="#359D60" transform="translate(151,93)"/>
<path d="M0 0 C0.66 0.33 1.32 0.66 2 1 C1.28269264 4.23165844 0.18684926 7.18707922 -1.0625 10.25 C-1.42472656 11.14203125 -1.78695312 12.0340625 -2.16015625 12.953125 C-2.57587891 13.96632813 -2.57587891 13.96632813 -3 15 C-3.66 15 -4.32 15 -5 15 C-1.92482916 4.44191344 -1.92482916 4.44191344 0 0 Z " fill="#29687C" transform="translate(165,87)"/>
<path d="M0 0 C2.64 0 5.28 0 8 0 C7.01 0.495 7.01 0.495 6 1 C6 2.32 6 3.64 6 5 C3.69 5 1.38 5 -1 5 C-0.67 3.35 -0.34 1.7 0 0 Z " fill="#454544" transform="translate(101,170)"/>
<path d="M0 0 C0.99 0 1.98 0 3 0 C3.33 2.31 3.66 4.62 4 7 C2.02 7.33 0.04 7.66 -2 8 C-2 7.34 -2 6.68 -2 6 C-1.34 5.67 -0.68 5.34 0 5 C0 3.35 0 1.7 0 0 Z " fill="#10A838" transform="translate(109,116)"/>
<path d="M0 0 C0.99 0.33 1.98 0.66 3 1 C2.814375 1.556875 2.62875 2.11375 2.4375 2.6875 C1.92448835 5.399133 2.3359276 7.34371039 3 10 C1.68 9.34 0.36 8.68 -1 8 C-1.04241723 5.66705225 -1.04092937 3.33297433 -1 1 C-0.67 0.67 -0.34 0.34 0 0 Z " fill="#33A14D" transform="translate(80,166)"/>
<path d="M0 0 C0.66 0 1.32 0 2 0 C0.41078475 5.36095277 -1.18972938 10.70843973 -3 16 C-3.33 16 -3.66 16 -4 16 C-4.5326514 9.741346 -2.81849506 5.54891215 0 0 Z " fill="#2D7971" transform="translate(155,131)"/>
<path d="M0 0 C6.625 -0.25 6.625 -0.25 10 2 C10 2.66 10 3.32 10 4 C5.21518987 3.06962025 5.21518987 3.06962025 2.875 2.3125 C0.67085333 1.72547363 0.67085333 1.72547363 -2 4 C-1.34 2.68 -0.68 1.36 0 0 Z " fill="#222222" transform="translate(232,119)"/>
<path d="M0 0 C0.33 0 0.66 0 1 0 C1 2.31 1 4.62 1 7 C1.66 7.33 2.32 7.66 3 8 C2.34 9.32 1.68 10.64 1 12 C0.34 12 -0.32 12 -1 12 C-1.02712066 10.56260487 -1.04645067 9.12506137 -1.0625 7.6875 C-1.07410156 6.88699219 -1.08570313 6.08648437 -1.09765625 5.26171875 C-1 3 -1 3 0 0 Z " fill="#CAF4DE" transform="translate(158,92)"/>
<path d="M0 0 C0.556875 0.61875 1.11375 1.2375 1.6875 1.875 C4.06645178 4.06106379 5.96357096 4.98785699 9 6 C5.92677456 6.91058531 3.19902639 7.08886184 0 7 C-1.125 2.25 -1.125 2.25 0 0 Z " fill="#D4D4D2" transform="translate(229,122)"/>
<path d="M0 0 C0.33 0.66 0.66 1.32 1 2 C1.66 2 2.32 2 3 2 C2.6875 3.875 2.6875 3.875 2 6 C1.01 6.66 0.02 7.32 -1 8 C-1.625 5.125 -1.625 5.125 -2 2 C-1.34 1.34 -0.68 0.68 0 0 Z " fill="#0FAE34" transform="translate(132,94)"/>
<path d="M0 0 C0.99 0 1.98 0 3 0 C2.9129995 1.62600941 2.8048219 3.25089678 2.6875 4.875 C2.62949219 5.77992187 2.57148438 6.68484375 2.51171875 7.6171875 C2 10 2 10 -1 12 C-1.33 10.02 -1.66 8.04 -2 6 C-1.34 6 -0.68 6 0 6 C0 4.02 0 2.04 0 0 Z " fill="#D8F9E8" transform="translate(126,94)"/>
<path d="M0 0 C0.99 0 1.98 0 3 0 C3.1875 3.375 3.1875 3.375 3 7 C2.01 7.66 1.02 8.32 0 9 C0 6.03 0 3.06 0 0 Z " fill="#14CC1A" transform="translate(96,100)"/>
<path d="M0 0 C0.66 0 1.32 0 2 0 C4 2 4 2 4.125 4.625 C4.08375 5.40875 4.0425 6.1925 4 7 C2.68 7 1.36 7 0 7 C0 4.69 0 2.38 0 0 Z " fill="#3C3C3B" transform="translate(149,168)"/>
<path d="M0 0 C2 0 4 0 6 0 C6 1.65 6 3.3 6 5 C5.38125 4.79375 4.7625 4.5875 4.125 4.375 C3.42375 4.25125 2.7225 4.1275 2 4 C1.34 4.66 0.68 5.32 0 6 C0 4.02 0 2.04 0 0 Z " fill="#1F1F1F" transform="translate(132,169)"/>
<path d="M0 0 C0.99 0.33 1.98 0.66 3 1 C2.34 1 1.68 1 1 1 C1 1.66 1 2.32 1 3 C1.66 3 2.32 3 3 3 C2.34 4.32 1.68 5.64 1 7 C0.01 7 -0.98 7 -2 7 C-2.33 5.68 -2.66 4.36 -3 3 C-2.01 3.33 -1.02 3.66 0 4 C0 2.68 0 1.36 0 0 Z " fill="#14537D" transform="translate(144,119)"/>
<path d="M0 0 C0.66 0.66 1.32 1.32 2 2 C1.625 5.625 1.625 5.625 1 9 C0.34 9 -0.32 9 -1 9 C-1.09765625 2.84765625 -1.09765625 2.84765625 -1 1 C-0.67 0.67 -0.34 0.34 0 0 Z " fill="#034781" transform="translate(133,112)"/>
<path d="M0 0 C1.98 0.495 1.98 0.495 4 1 C3.67 2.32 3.34 3.64 3 5 C1.68 4.67 0.36 4.34 -1 4 C-0.67 2.68 -0.34 1.36 0 0 Z " fill="#424241" transform="translate(125,170)"/>
<path d="M0 0 C0 3 0 3 -1 4.6875 C-4.21371429 6.7965 -7.21503429 6.18614585 -11 6 C-11.33 5.34 -11.66 4.68 -12 4 C-10.7625 3.896875 -9.525 3.79375 -8.25 3.6875 C-4.7207134 3.26198318 -2.62839034 2.51887408 0 0 Z " fill="#66C16B" transform="translate(135,88)"/>
<path d="M0 0 C1.32 0 2.64 0 4 0 C4 1.65 4 3.3 4 5 C2.68 4.67 1.36 4.34 0 4 C0 2.68 0 1.36 0 0 Z " fill="#414140" transform="translate(155,170)"/>
<path d="M0 0 C0.66 0.33 1.32 0.66 2 1 C1.01 3.64 0.02 6.28 -1 9 C-1.66 8.01 -2.32 7.02 -3 6 C-3.66 5.67 -4.32 5.34 -5 5 C-3.35 3.35 -1.7 1.7 0 0 Z " fill="#CAF2DD" transform="translate(164,86)"/>
<path d="M0 0 C1.32 0.33 2.64 0.66 4 1 C4 1.99 4 2.98 4 4 C3.34 4 2.68 4 2 4 C2 4.66 2 5.32 2 6 C1.34 6 0.68 6 0 6 C0 4.02 0 2.04 0 0 Z " fill="#353535" transform="translate(95,169)"/>
<path d="M0 0 C0.33 0.66 0.66 1.32 1 2 C1.99 2 2.98 2 4 2 C4 2.66 4 3.32 4 4 C1.69 4 -0.62 4 -3 4 C-2.67 3.01 -2.34 2.02 -2 1 C-1.34 0.67 -0.68 0.34 0 0 Z " fill="#D0FAE1" transform="translate(117,122)"/>
<path d="M0 0 C0.33 0 0.66 0 1 0 C2 3 3 6 4 9 C2.68 9 1.36 9 0 9 C0 6.03 0 3.06 0 0 Z " fill="#CFF1E9" transform="translate(118,98)"/>
<path d="M0 0 C2.31 0 4.62 0 7 0 C5.87548273 2.9719385 4.77706209 5.33440687 3 8 C3.33 5.69 3.66 3.38 4 1 C2.68 0.67 1.36 0.34 0 0 Z " fill="#3EB74C" transform="translate(125,93)"/>
<path d="M0 0 C0.33 0.66 0.66 1.32 1 2 C-0.65 3.98 -2.3 5.96 -4 8 C-4.33 7.01 -4.66 6.02 -5 5 C-3.35 3.35 -1.7 1.7 0 0 Z " fill="#046869" transform="translate(162,104)"/>
<path d="M0 0 C1.98 0.99 1.98 0.99 4 2 C3.34 3.65 2.68 5.3 2 7 C1.34 7 0.68 7 0 7 C0 4.69 0 2.38 0 0 Z " fill="#BCFCC2" transform="translate(101,100)"/>
<path d="M0 0 C2 4 2 4 1.25 6.6875 C0 9 0 9 -2 10 C-1.34 6.7 -0.68 3.4 0 0 Z " fill="#22AE39" transform="translate(153,87)"/>
</svg>
